<svg xmlns="http://www.w3.org/2000/svg" xmlns:xlink="http://www.w3.org/1999/xlink" id="Layer_1" x="0px" y="0px" viewBox="0 0 56 56" style="enable-background:new 0 0 56 56;" xml:space="preserve"><style type="text/css">	.st0{fill:#CCEFDC;}	.st1{fill-rule:evenodd;clip-rule:evenodd;fill:#99E0B9;}	.st2{fill:none;}	.st3{fill:#00B14F;}	.st4{fill:#FFFFFF;}	.st5{fill-rule:evenodd;clip-rule:evenodd;fill:#B2E8CA;}	.st6{fill-rule:evenodd;clip-rule:evenodd;fill:#FFFFFF;}	.st7{fill-rule:evenodd;clip-rule:evenodd;fill:#66D095;}	.st8{fill-rule:evenodd;clip-rule:evenodd;fill:#CCEFDC;}	.st9{fill-rule:evenodd;clip-rule:evenodd;fill:#FDF4D9;}	.st10{fill-rule:evenodd;clip-rule:evenodd;fill:#F39D56;}	.st11{fill:#C7712D;}	.st12{fill-rule:evenodd;clip-rule:evenodd;fill:#C7712D;}</style><g>	<circle class="st8" cx="28" cy="28" r="28"/>	<ellipse class="st1" cx="28" cy="46.67" rx="22.67" ry="1.33"/>	<path class="st9" d="M14.97,42.86V15.32c0.06-1.85-1.32-3.43-3.15-3.6H40.9c1.52,0,3.16,2.07,3.17,3.6v31.09l-27.51,0.03  C15.71,46.25,14.97,44.78,14.97,42.86z"/>	<path class="st10" d="M16.69,46.44c1.51,0,2.74-1.62,2.74-3.6v-1.67l28.82-0.07c0,2.9-1.67,5.28-3.52,5.28L16.69,46.44z"/>	<g>		<path class="st11" d="M21.56,19.23v1.96h0.72c0.41,0,0.72-0.1,0.82-0.21c0.21-0.21,0.21-0.41,0.21-0.72c0-0.31-0.1-0.62-0.31-0.72   c-0.21-0.1-0.51-0.21-0.93-0.21h-0.51L21.56,19.23L21.56,19.23z M22.38,22.53h-0.82v2.58H19.6V17.9h2.78   c0.93,0,1.65,0.21,2.06,0.62c0.51,0.41,0.72,0.93,0.72,1.65c0,0.51-0.1,0.82-0.31,1.13c-0.21,0.31-0.51,0.51-0.82,0.72l1.65,2.88   v0.21h-1.96L22.38,22.53z"/>		<polygon class="st11" points="27.43,20.68 27.43,25.11 25.88,25.11 25.88,17.89 28.15,17.89 29.69,22.63 31.24,17.89 33.61,17.89    33.61,25.11 31.86,25.11 31.86,20.68 30.21,25.11 29.08,25.11   "/>	</g>	<path class="st12" d="M14.97,15.16c0-0.04,0-0.09,0-0.13c0-1.81-1.44-3.28-3.23-3.31c0,0-0.01,0-0.01,0c0,0-0.01,0-0.01,0  c-0.01,0-0.03,0-0.04,0c-1.81,0-3.28,1.48-3.29,3.3c0,0.11,0,0.23,0,0.34v6.93h4.58v20.53c0,1.85,1.89,3.41,3.72,3.61  c-0.9,0-1.72-1.6-1.72-3.61V15.36C14.97,15.29,14.97,15.23,14.97,15.16z"/>	<g>		<path class="st10" d="M19.61,35.18h20.48v1.94H19.61V35.18z M19.61,29.33h20.48v1.94H19.61V29.33z M35.06,23.48h5.02v1.94h-5.02   V23.48z M35.06,17.62h5.02v1.94h-5.02V17.62z"/>	</g></g></svg>