<svg xmlns="http://www.w3.org/2000/svg" width="76" height="72" viewBox="0 0 76 72" fill="none"><path d="M36.7013 71.9982C56.5712 71.9982 72.6789 55.8808 72.6789 35.9991C72.6789 16.1173 56.5712 0 36.7013 0C16.8314 0 0.723633 16.1173 0.723633 35.9991C0.723633 55.8808 16.8314 71.9982 36.7013 71.9982Z" fill="#CCEFDC"/><path d="M32.6945 32.8273C32.7341 32.35 33.1337 31.9826 33.6125 31.9844H71.9662C72.4739 31.9844 72.8843 32.395 72.8843 32.903C72.8843 33.4109 72.4739 33.8215 71.9662 33.8215H33.6125C33.1049 33.8215 32.6927 33.4127 32.6909 32.9066C32.6909 32.8795 32.6909 32.8543 32.6945 32.8273V32.8273Z" fill="#FDF4D9"/><path fill-rule="evenodd" clip-rule="evenodd" d="M73.1544 25.7038L33.0996 27.1195L34.2732 22.1034C34.4388 21.5649 34.9285 21.1902 35.4919 21.1704H67.2232C67.9036 21.1812 68.5516 21.4694 69.0142 21.9683L73.1544 25.7038V25.7038Z" fill="#FDF4D9"/><path fill-rule="evenodd" clip-rule="evenodd" d="M47.356 11.8478L49.1614 13.6399V16.6226H59.7889V13.6399V11.8478H47.356Z" fill="white"/><path fill-rule="evenodd" clip-rule="evenodd" d="M38.9713 17.6006L37.7671 21.1704H59.7889L57.0187 18.6849C55.6056 17.3719 53.7534 16.637 51.8255 16.6208H40.2206C39.6373 16.6442 39.1333 17.0387 38.9713 17.6006V17.6006Z" fill="#FDF4D9"/><path fill-rule="evenodd" clip-rule="evenodd" d="M56.3562 18.1427H41.3042C40.8883 18.1535 40.5283 18.4345 40.4167 18.8361L39.6499 21.1704H59.7907L57.0204 18.6848C56.8098 18.4921 56.5884 18.3102 56.358 18.1427H56.3562Z" fill="#C7712D"/><path fill-rule="evenodd" clip-rule="evenodd" d="M69.0159 21.9683C68.5533 21.4694 67.9053 21.1812 67.2249 21.1704H57.6216L66.035 25.6894H73.1542L69.0141 21.9701L69.0159 21.9683Z" fill="white"/><path d="M58.102 13.6399H49.1611V16.637H58.102V13.6399Z" fill="#F7C942"/><path fill-rule="evenodd" clip-rule="evenodd" d="M59.7885 16.637H53.4056L52.2319 13.6399H59.7885V16.637Z" fill="#4B4B4B"/><path fill-rule="evenodd" clip-rule="evenodd" d="M64.7405 18.6849C63.3221 17.3719 61.4644 16.6352 59.533 16.6208H50.9233C52.8512 16.6352 54.7035 17.3719 56.1165 18.6849L58.8418 21.1704H67.4676L64.7423 18.6849H64.7405Z" fill="white"/><path fill-rule="evenodd" clip-rule="evenodd" d="M64.0637 18.1427H55.4541C55.7655 18.5101 56.0373 18.91 56.2677 19.3332C56.5521 19.7943 56.8635 20.2356 57.2001 20.6589L57.6214 21.1704H67.5108L64.7406 18.6848C64.5192 18.5137 64.2942 18.3336 64.0637 18.1427Z" fill="#4B4B4B"/><path d="M60.66 11.8622H52.2466V13.6399H60.66V11.8622Z" fill="white"/><path fill-rule="evenodd" clip-rule="evenodd" d="M31.0527 26.4567L76 22.8725L71.7249 32.4959H32.6782L31.0527 26.4567Z" fill="#F7C942"/><path fill-rule="evenodd" clip-rule="evenodd" d="M31.9419 29.8014L32.6781 32.4959H71.7248L74.1189 27.1195L31.9419 29.8014Z" fill="#4B4B4B"/><path fill-rule="evenodd" clip-rule="evenodd" d="M49.6564 33.1929C49.6564 33.1929 43.106 23.4254 49.6564 28.1696C54.6389 31.7178 54.3221 27.8148 56.5434 29.3655C61.2091 32.5967 61.9382 28.582 64.3826 30.8785C66.8271 33.1749 71.6422 32.9894 71.6422 32.9894L49.6564 33.1947V33.1929Z" fill="#FDF4D9"/><path d="M27.0926 57.4397C43.3381 57.4397 56.5072 58.1601 56.5072 59.0499C56.5072 59.9397 43.3381 60.6601 27.0926 60.6601C10.8471 60.6601 0 59.9397 0 59.0499C0 58.1601 10.8471 57.4397 27.0926 57.4397Z" fill="#99E0B9"/><path fill-rule="evenodd" clip-rule="evenodd" d="M9.49902 54.4786H54.2447C54.2753 55.7142 53.2979 56.7409 52.0631 56.7715H9.49902V54.4786Z" fill="#4B4B4B"/><path fill-rule="evenodd" clip-rule="evenodd" d="M46.1768 58.3457C45.4675 57.3082 45.1021 56.0744 45.1327 54.8173C45.1327 52.2398 46.4882 50.1631 48.1154 50.1631C49.7427 50.1631 51.0981 52.2398 51.0981 54.8173C51.0981 57.3947 49.7427 59.457 48.1154 59.457H44.4541L45.3091 58.3439H46.1768V58.3457Z" fill="#4B4B4B"/><path d="M44.4558 59.4588C46.1031 59.4588 47.4385 57.3815 47.4385 54.8191C47.4385 52.2566 46.1031 50.1794 44.4558 50.1794C42.8085 50.1794 41.4731 52.2566 41.4731 54.8191C41.4731 57.3815 42.8085 59.4588 44.4558 59.4588Z" fill="#4B4B4B"/><path fill-rule="evenodd" clip-rule="evenodd" d="M7.46474 58.3457C6.74832 57.3118 6.38291 56.0744 6.42071 54.8173C6.42071 52.2398 7.77615 50.1631 9.4034 50.1631C11.0306 50.1631 12.3861 52.2398 12.3861 54.8173C12.3861 57.3947 11.0306 59.457 9.4034 59.457H5.72949L6.58452 58.3439H7.46654L7.46474 58.3457Z" fill="#4B4B4B"/><path fill-rule="evenodd" clip-rule="evenodd" d="M25.3085 58.3457C24.5993 57.3082 24.2339 56.0744 24.2645 54.8173C24.2645 52.2398 25.6199 50.1631 27.2471 50.1631C28.8744 50.1631 30.2298 52.2398 30.2298 54.8173C30.2298 57.3947 28.8744 59.457 27.2471 59.457H23.5732L24.4283 58.3439H25.3103L25.3085 58.3457Z" fill="#4B4B4B"/><path d="M35.1947 52.5929H30.8691V55.1847H35.1947V52.5929Z" fill="#4B4B4B"/><path d="M45.2697 25.6895H25.1343C29.5534 25.6895 33.1337 29.2737 33.1337 33.6937V52.9603C33.1337 53.8969 33.8933 54.657 34.8294 54.657H54.4085C55.3446 54.6642 56.1096 53.9113 56.1168 52.9747V36.5719C56.1312 30.5777 51.2872 25.7057 45.2967 25.6913H45.2697V25.6895Z" fill="#99E0B9"/><path d="M25.1322 25.6895H8.76613C4.3524 25.6967 0.779297 29.2791 0.779297 33.6937V52.9603C0.779297 53.8969 1.53892 54.657 2.47495 54.657H31.4252C32.363 54.657 33.1262 53.9005 33.1334 52.9603V33.6937C33.1334 29.2719 29.5513 25.6895 25.134 25.6895H25.1322Z" fill="#00B14F"/><path d="M20.0615 36.7736H0.779297V52.9603C0.779297 53.8969 1.53892 54.6569 2.47495 54.6569H31.4252C32.363 54.6569 33.1262 53.9005 33.1334 52.9603V47.656L26.475 39.7454C24.8766 37.8614 22.5311 36.7754 20.0615 36.7736V36.7736Z" fill="#006A2F"/><path d="M50.1637 31.6584H40.7944V35.0643H50.1637V31.6584Z" fill="white"/><path d="M23.6005 59.4588C25.2627 59.4588 26.6102 57.3573 26.6102 54.765C26.6102 52.1727 25.2627 50.0713 23.6005 50.0713C21.9383 50.0713 20.5908 52.1727 20.5908 54.765C20.5908 57.3573 21.9383 59.4588 23.6005 59.4588Z" fill="#4B4B4B"/><path d="M23.4114 57.3298C24.1232 57.3298 24.7002 56.2057 24.7002 54.8191C24.7002 53.4324 24.1232 52.3083 23.4114 52.3083C22.6996 52.3083 22.1226 53.4324 22.1226 54.8191C22.1226 56.2057 22.6996 57.3298 23.4114 57.3298Z" fill="white"/><path d="M33.1338 49.1203V52.9603C33.1338 53.8969 33.8934 54.657 34.8294 54.657H54.4086C55.3446 54.6642 56.1097 53.9113 56.1169 52.9747V49.1221H33.1338V49.1203Z" fill="#008E3F"/><path d="M56.1164 50.8296V46.5825H54.0824C53.8231 46.5843 53.5783 46.705 53.4181 46.9085L51.1807 50.8296H56.1164Z" fill="white"/><path d="M38.3809 46.9085C38.2207 46.705 37.9759 46.5843 37.7167 46.5825H33.1338V50.8296H41.4734L38.3827 46.9085H38.3809Z" fill="white"/><path d="M33.1192 46.5825H30.5703V50.8296H33.1192V46.5825Z" fill="#F7C942"/><path d="M5.84855 59.4569C7.51076 59.4569 8.85824 57.3555 8.85824 54.7632C8.85824 52.1709 7.51076 50.0695 5.84855 50.0695C4.18635 50.0695 2.83887 52.1709 2.83887 54.7632C2.83887 57.3555 4.18635 59.4569 5.84855 59.4569Z" fill="#4B4B4B"/><path d="M5.65944 57.3281C6.37125 57.3281 6.94828 56.2039 6.94828 54.8173C6.94828 53.4306 6.37125 52.3065 5.65944 52.3065C4.94764 52.3065 4.37061 53.4306 4.37061 54.8173C4.37061 56.2039 4.94764 57.3281 5.65944 57.3281Z" fill="white"/></svg>