<svg xmlns="http://www.w3.org/2000/svg" width="72" height="72" viewBox="0 0 72 72" fill="none"><g clip-path="url(#clip0)"><path d="M40.7009 54.64C55.7893 54.64 68.0209 42.4084 68.0209 27.32C68.0209 12.2316 55.7893 0 40.7009 0C25.6124 0 13.3809 12.2316 13.3809 27.32C13.3809 42.4084 25.6124 54.64 40.7009 54.64Z" fill="#CCEFDC"/><path opacity="0.15" fill-rule="evenodd" clip-rule="evenodd" d="M13.2992 44.2202H70.6992C71.0256 44.2488 71.3294 44.3987 71.5507 44.6403C71.772 44.8818 71.8948 45.1976 71.8948 45.5252C71.8948 45.8529 71.772 46.1686 71.5507 46.4102C71.3294 46.6517 71.0256 46.8016 70.6992 46.8302H13.2992C12.9728 46.8016 12.669 46.6517 12.4476 46.4102C12.2263 46.1686 12.1035 45.8529 12.1035 45.5252C12.1035 45.1976 12.2263 44.8818 12.4476 44.6403C12.669 44.3987 12.9728 44.2488 13.2992 44.2202Z" fill="#1C1C1C"/><path fill-rule="evenodd" clip-rule="evenodd" d="M65.4797 42.8102H22.4297V39.2002H68.0897C68.0897 41.6502 66.9197 42.8102 65.4797 42.8102Z" fill="#364F40"/><path fill-rule="evenodd" clip-rule="evenodd" d="M62.8791 33.2598H58.9991C56.8391 33.2598 55.0791 35.8498 55.0691 39.0598C55.0514 40.3254 55.3469 41.5758 55.9291 42.6998L55.9791 42.7898C55.9987 42.8318 56.0221 42.872 56.0491 42.9098C56.3192 43.4688 56.7307 43.9475 57.243 44.2983C57.7552 44.6492 58.3503 44.86 58.9691 44.9098C59.6891 44.9098 62.1691 44.9098 62.8891 44.9098C63.5117 44.8643 64.1114 44.6555 64.6276 44.3044C65.1437 43.9533 65.5582 43.4722 65.8291 42.9098L65.8891 42.8098C65.8929 42.7732 65.8929 42.7363 65.8891 42.6998C66.4748 41.5803 66.7737 40.3331 66.7591 39.0698C66.7591 35.8698 65.0191 33.2598 62.8591 33.2598" fill="#364F40"/><path fill-rule="evenodd" clip-rule="evenodd" d="M71.6809 34.5601L70.0909 31.4101C69.8086 30.8545 69.3368 30.4182 68.7609 30.1801L61.8309 27.3201C57.6339 23.1817 51.975 20.8643 46.0809 20.8701H27.1309C29.3518 20.8658 31.5364 21.4341 33.4737 22.5201C35.411 23.6061 37.0357 25.1732 38.1909 27.0701L38.3509 27.3201L45.2809 30.1801C45.8583 30.4159 46.3308 30.8529 46.6109 31.4101L48.2009 34.5601C48.3835 34.9178 48.4787 35.3136 48.4787 35.7151C48.4787 36.1167 48.3835 36.5125 48.2009 36.8701L46.8909 39.4501C46.8266 39.5958 46.7981 39.7547 46.8076 39.9136C46.8171 40.0725 46.8644 40.2268 46.9456 40.3637C47.0268 40.5007 47.1395 40.6162 47.2743 40.7008C47.4092 40.7854 47.5623 40.8366 47.7209 40.8501H68.0009C68.4827 40.8526 68.9557 40.7211 69.3671 40.4704C69.7785 40.2196 70.1122 39.8595 70.3309 39.4301L71.6409 36.8501C71.8181 36.4909 71.9103 36.0957 71.9103 35.6951C71.9103 35.2946 71.8181 34.8994 71.6409 34.5401" fill="#70C391"/><path fill-rule="evenodd" clip-rule="evenodd" d="M26.8398 23.4502V27.3202H61.8398C60.2784 25.7748 58.4955 24.4705 56.5498 23.4502H26.8398Z" fill="#364F40"/><path fill-rule="evenodd" clip-rule="evenodd" d="M21.58 34.4199H18.1C16.18 34.4199 14.62 36.7299 14.61 39.5799C14.5948 40.7058 14.8557 41.8182 15.37 42.8199V42.8899L15.44 42.9999C15.6821 43.4918 16.0484 43.9119 16.5026 44.2188C16.9569 44.5258 17.4833 44.7088 18.03 44.7499H21.51C22.0683 44.7188 22.6085 44.5405 23.0757 44.2331C23.5428 43.9258 23.9204 43.5003 24.17 42.9999C24.1667 42.97 24.1667 42.9398 24.17 42.9099L24.22 42.8199C24.7412 41.8236 25.009 40.7143 25 39.5899C25 36.7399 23.46 34.4199 21.54 34.4199" fill="#364F40"/><path fill-rule="evenodd" clip-rule="evenodd" d="M41.9996 33.7798H38.0996C35.9396 33.7798 34.1796 36.3698 34.1696 39.5798C34.1439 40.8428 34.4289 42.0928 34.9996 43.2198V43.2998C35.019 43.3451 35.0424 43.3886 35.0696 43.4298C35.3372 43.9907 35.7481 44.471 36.2608 44.8222C36.7735 45.1734 37.3699 45.383 37.9896 45.4298H41.9996C42.6219 45.3834 43.2211 45.1742 43.7372 44.8231C44.2532 44.4721 44.6678 43.9916 44.9396 43.4298L44.9996 43.3198C45.0031 43.2865 45.0031 43.253 44.9996 43.2198C45.5852 42.1003 45.8842 40.8531 45.8696 39.5898C45.8696 36.3798 44.1296 33.7798 41.9696 33.7798" fill="#364F40"/><path fill-rule="evenodd" clip-rule="evenodd" d="M48.2 34.5601L46.61 31.4101C46.3299 30.8529 45.8574 30.4159 45.28 30.1801L38.35 27.3201L38.19 27.0701C37.0348 25.1732 35.4102 23.6061 33.4729 22.5201C31.5355 21.4341 29.351 20.8658 27.13 20.8701H26.47C24.4511 20.867 22.4653 21.3832 20.7035 22.3692C18.9417 23.3551 17.4632 24.7777 16.41 26.5001C16.0904 27.0313 15.5897 27.4291 15 27.6201L14.68 27.7301C13.9042 27.9824 13.2276 28.4729 12.7465 29.1317C12.2654 29.7906 12.0042 30.5843 12 31.4001V36.1601C12.0077 37.1076 12.36 38.0199 12.9913 38.7266C13.6225 39.4333 14.4894 39.886 15.43 40.0001L22.43 40.8601H44.56C45.0418 40.8626 45.5148 40.7311 45.9262 40.4804C46.3377 40.2296 46.6713 39.8695 46.89 39.4401L48.2 36.8601C48.3826 36.5025 48.4778 36.1067 48.4778 35.7051C48.4778 35.3036 48.3826 34.9078 48.2 34.5501" fill="#F3F9F6"/><path fill-rule="evenodd" clip-rule="evenodd" d="M38.0996 33.7798C35.9396 33.7798 34.1796 36.3698 34.1696 39.5798C34.1439 40.8428 34.4289 42.0928 34.9996 43.2198V43.2998C35.019 43.3451 35.0424 43.3886 35.0696 43.4298C35.3372 43.9907 35.7481 44.471 36.2608 44.8222C36.7735 45.1734 37.3699 45.383 37.9896 45.4298C38.6119 45.3834 39.2111 45.1742 39.7271 44.8231C40.2432 44.4721 40.6578 43.9916 40.9296 43.4298L40.9996 43.3198C41.0122 43.2846 41.029 43.251 41.0496 43.2198C41.6631 42.1076 41.9896 40.8599 41.9996 39.5898C41.9996 36.3798 40.2596 33.7798 38.0996 33.7798Z" fill="#364F40"/><path fill-rule="evenodd" clip-rule="evenodd" d="M37.9991 36.3598C37.0691 36.3598 36.2991 37.7998 36.2991 39.5798C36.2926 40.2641 36.4183 40.9431 36.6691 41.5798V41.6498C36.9791 42.3198 37.4391 42.7398 37.9391 42.7398C38.4391 42.7398 38.9391 42.3198 39.2091 41.6498V41.5898V41.5298C39.4604 40.8933 39.586 40.2141 39.5791 39.5298C39.5791 37.7498 38.8291 36.2998 37.8891 36.2998" fill="#F3F9F6"/><path fill-rule="evenodd" clip-rule="evenodd" d="M18.1 34.4199C16.18 34.4199 14.62 36.7299 14.61 39.5799C14.5948 40.7058 14.8557 41.8182 15.37 42.8199V42.8899L15.44 42.9999C15.6821 43.4918 16.0484 43.9119 16.5026 44.2188C16.9569 44.5258 17.4833 44.7088 18.03 44.7499C18.5883 44.7188 19.1285 44.5405 19.5957 44.2331C20.0628 43.9258 20.4404 43.5003 20.69 42.9999C20.74 42.91 20.74 42.91 20.7901 42.8198C21.3077 41.8227 21.5721 40.7134 21.56 39.5899C21.56 36.7399 20.02 34.4199 18.1 34.4199Z" fill="#364F40"/><path fill-rule="evenodd" clip-rule="evenodd" d="M18.0009 36.7202C17.1709 36.7202 16.4909 38.0002 16.4909 39.5802C16.4808 40.1961 16.593 40.8079 16.8209 41.3802C16.8252 41.4 16.8252 41.4204 16.8209 41.4402C17.1009 42.0302 17.5009 42.4402 17.9509 42.4402C18.4009 42.4402 18.8109 42.0702 19.0809 41.4402C19.3087 40.8714 19.4209 40.2629 19.4109 39.6502C19.4109 38.0602 18.7409 36.7802 17.9109 36.7802" fill="#F3F9F6"/><path fill-rule="evenodd" clip-rule="evenodd" d="M14.91 32.8901L15.91 29.8901H12.31C12.1057 30.3673 12.0002 30.881 12 31.4001V33.7801H13.67C13.9438 33.78 14.2106 33.694 14.433 33.5344C14.6554 33.3748 14.8222 33.1495 14.91 32.8901Z" fill="#ED6150"/><path fill-rule="evenodd" clip-rule="evenodd" d="M19.7401 27.3202H38.3501L38.1901 27.0702C37.3423 25.6619 36.2282 24.4323 34.9101 23.4502H23.2201C22.5842 23.455 21.9591 23.614 21.3982 23.9136C20.8374 24.2132 20.3576 24.6444 20.0001 25.1702L19.2301 26.3202C19.1641 26.4172 19.126 26.5304 19.12 26.6475C19.114 26.7647 19.1403 26.8812 19.196 26.9844C19.2517 27.0876 19.3347 27.1735 19.436 27.2327C19.5372 27.2919 19.6528 27.3222 19.7701 27.3202" fill="#70C391"/><path fill-rule="evenodd" clip-rule="evenodd" d="M56.7395 33.1298L64.5595 35.7098L68.7395 33.1298V31.8398H55.4395L56.7395 33.1298Z" fill="#364F40"/><path fill-rule="evenodd" clip-rule="evenodd" d="M58.5891 33.7298L56.5891 31.8398H46.7891L48.1791 34.5898C48.2697 34.7716 48.3401 34.9627 48.3891 35.1598L55.6791 36.5198L58.5891 33.7298Z" fill="#F3F9F6"/><path fill-rule="evenodd" clip-rule="evenodd" d="M48.1995 34.5601L46.8095 31.8101H42.5195L44.6095 34.4301L48.4095 35.1401C48.3613 34.9395 48.2908 34.745 48.1995 34.5601Z" fill="#364F40"/><path fill-rule="evenodd" clip-rule="evenodd" d="M70.8298 31.8398H68.7398L68.0898 33.5198L69.9099 36.2298L71.6098 33.1298L70.8298 31.8398Z" fill="#F3F9F6"/><path fill-rule="evenodd" clip-rule="evenodd" d="M69.29 40.56L68.38 37.88C68.2924 37.6234 68.1267 37.4005 67.9061 37.2427C67.6856 37.0849 67.4212 37.0001 67.15 37H58.35C58.136 36.9995 57.9252 37.0523 57.7367 37.1535C57.5482 37.2548 57.3878 37.4013 57.27 37.58L55 40.87H68C68.4356 40.8694 68.8646 40.763 69.25 40.56" fill="#364F40"/><path d="M18.23 38.8501C28.2981 38.8501 36.46 30.6883 36.46 20.6201C36.46 10.552 28.2981 2.39014 18.23 2.39014C8.16185 2.39014 0 10.552 0 20.6201C0 30.6883 8.16185 38.8501 18.23 38.8501Z" fill="#43B771"/><path d="M18.0792 20.53C20.4982 20.53 22.4592 18.569 22.4592 16.15C22.4592 13.731 20.4982 11.77 18.0792 11.77C15.6602 11.77 13.6992 13.731 13.6992 16.15C13.6992 18.569 15.6602 20.53 18.0792 20.53Z" fill="white"/><path fill-rule="evenodd" clip-rule="evenodd" d="M23.5601 30.7499C23.5917 30.0113 23.4734 29.2738 23.2125 28.5821C22.9516 27.8903 22.5534 27.2585 22.0419 26.7246C21.5304 26.1908 20.9161 25.7659 20.2361 25.4757C19.5561 25.1855 18.8244 25.0359 18.0851 25.0359C17.3457 25.0359 16.614 25.1855 15.934 25.4757C15.254 25.7659 14.6398 26.1908 14.1283 26.7246C13.6167 27.2585 13.2185 27.8903 12.9576 28.5821C12.6967 29.2738 12.5785 30.0113 12.6101 30.7499H9.33008V25.9999C9.36067 25.3233 9.59876 24.6724 10.012 24.1357C10.4253 23.599 10.9937 23.2025 11.6401 22.9999C13.7131 22.2982 15.8918 21.9599 18.0801 21.9999C20.2717 21.9587 22.4539 22.297 24.5301 22.9999C25.175 23.205 25.7418 23.6022 26.1547 24.1384C26.5675 24.6745 26.8067 25.3241 26.8401 25.9999V30.7199L23.5601 30.7499Z" fill="white"/><path fill-rule="evenodd" clip-rule="evenodd" d="M21.3699 30.7501C21.3946 30.3035 21.3279 29.8565 21.1739 29.4365C21.02 29.0165 20.782 28.6323 20.4745 28.3074C20.1671 27.9825 19.7966 27.7237 19.3857 27.5469C18.9749 27.37 18.5322 27.2788 18.0849 27.2788C17.6376 27.2788 17.195 27.37 16.7841 27.5469C16.3732 27.7237 16.0028 27.9825 15.6953 28.3074C15.3878 28.6323 15.1499 29.0165 14.9959 29.4365C14.842 29.8565 14.7753 30.3035 14.7999 30.7501H21.3699Z" fill="white"/></g><defs><clipPath id="clip0"><rect width="72" height="72" fill="white"/></clipPath></defs></svg>