<svg xmlns="http://www.w3.org/2000/svg" width="72" height="72" viewBox="0 0 72 72" fill="none"><path d="M36 72C55.8823 72 72 55.8823 72 36C72 16.1178 55.8823 0 36 0C16.1178 0 0 16.1178 0 36C0 55.8823 16.1178 72 36 72Z" fill="#CCEFDC"/><path d="M36 64.1575C50.9117 64.1575 63 63.4483 63 62.5735C63 61.6987 50.9117 60.9895 36 60.9895C21.0883 60.9895 9 61.6987 9 62.5735C9 63.4483 21.0883 64.1575 36 64.1575Z" fill="#99E0B9"/><path d="M37.3466 9.49512H34.8662V55.2079H37.3466V9.49512Z" fill="#008E3F"/><path d="M34.7866 54.4751V52.5473C46.069 52.4951 55.204 43.3637 55.2634 32.0813C55.213 26.7155 53.0224 21.5927 49.1776 17.8505C45.3328 14.1083 40.1524 12.0581 34.7884 12.1535V9.6875C47.9932 9.6875 58.7374 19.0241 58.7374 32.0813C58.7374 45.1385 47.9932 54.4769 34.7884 54.4769L34.7866 54.4751Z" fill="#006A2F"/><path d="M56.0406 19.8504L16.4497 42.699L17.6904 44.8488L57.2813 22.0002L56.0406 19.8504Z" fill="#008E3F"/><path d="M17.6928 19.8482L16.4517 21.9978L56.0385 44.8533L57.2796 42.7037L17.6928 19.8482Z" fill="#008E3F"/><path d="M33.8239 55.5642C25.4539 55.6794 17.6707 51.2802 13.4515 44.0496C9.23231 36.819 9.23231 27.8784 13.4515 20.6496C17.6707 13.419 25.4539 9.01982 33.8239 9.13502V12.285C22.7413 12.285 13.7575 21.2688 13.7575 32.3514C13.7575 43.434 22.7413 52.4178 33.8239 52.4178V55.566V55.5642Z" fill="#006A2F"/><path d="M36.8659 12.0473C28.6543 12.0473 21.2509 16.9937 18.1081 24.5807C14.9653 32.1677 16.7023 40.8995 22.5091 46.7063C28.3159 52.5131 37.0477 54.2501 44.6347 51.1073C52.2217 47.9645 57.1681 40.5611 57.1681 32.3495C57.1555 21.1427 48.0727 12.0599 36.8659 12.0473V12.0473ZM36.8659 55.7621C23.9365 55.7621 13.4551 45.2807 13.4551 32.3513C13.4551 19.4219 23.9347 8.93872 36.8659 8.93872C49.7971 8.93872 60.2767 19.4201 60.2767 32.3495C60.2623 45.2735 49.7881 55.7459 36.8659 55.7603V55.7621Z" fill="#00B14F"/><path d="M34.9145 37.5354C33.0551 37.5444 31.3343 36.558 30.4019 34.9506C29.4695 33.3432 29.4695 31.3578 30.4019 29.7504C31.3343 28.143 33.0551 27.1566 34.9145 27.1656H36.6245V37.5372H34.9145V37.5354Z" fill="#006A2F"/><path d="M36.7184 33.309L35.1434 32.5764L22.1294 60.4854H18.3242V62.3448H23.2058L36.7184 33.309Z" fill="#006A2F"/><path d="M36.7066 32.576L35.1323 33.3101L48.4098 61.7837L49.9841 61.0496L36.7066 32.576Z" fill="#006A2F"/><path d="M36.866 34.9974L48.7496 60.4854H24.9806L36.866 34.9974V34.9974ZM50.6666 60.4854L37.6526 32.5764L36.866 32.9436L36.0794 32.5764L23.0654 60.4854H19.6904V62.3466H53.759V60.4854H50.6702H50.6666Z" fill="#008E3F"/><path d="M37.6526 32.5764L40.493 38.6712L38.9198 39.4038L36.866 34.9974L34.8104 39.4038L33.2354 38.6712L36.0794 32.5764H37.6526Z" fill="#006A2F"/><path d="M41.7375 34.3342C42.8335 31.6882 41.577 28.6547 38.931 27.5587C36.285 26.4626 33.2514 27.7192 32.1554 30.3652C31.0594 33.0112 32.3159 36.0447 34.962 37.1408C37.608 38.2368 40.6415 36.9803 41.7375 34.3342Z" fill="#00B14F"/><path d="M57.6611 49.2355C59.8877 49.0897 61.6193 47.2411 61.6193 45.0091C61.6193 42.7771 59.8877 40.9285 57.6611 40.7827H53.1755C50.9489 40.9285 49.2173 42.7771 49.2173 45.0091C49.2173 47.2411 50.9489 49.0897 53.1755 49.2355H57.6611Z" fill="white"/><path d="M54.1871 49.2355H53.1755C50.9489 49.0897 49.2173 47.2393 49.2173 45.0091C49.2173 42.7789 50.9489 40.9285 53.1755 40.7827H54.1871C53.3177 42.0139 52.8929 43.5043 52.9865 45.0091C52.8947 46.5139 53.3177 48.0043 54.1871 49.2355Z" fill="#F9D2AA"/><path d="M61.6195 45.009C61.6915 47.268 59.9203 49.1598 57.6613 49.2354H53.1757C50.9167 49.1598 49.1455 47.268 49.2175 45.009H61.6213H61.6195Z" fill="#F39D56"/><path d="M52.9846 45.009H49.2154C49.2082 46.116 49.6222 47.1852 50.3746 47.997C51.0946 48.7818 52.1098 49.23 53.1736 49.2354H54.1852C53.3158 48.0042 52.891 46.5138 52.9846 45.009V45.009Z" fill="#EE6352"/><path d="M58.9013 28.5426C61.1279 28.3968 62.8595 26.5482 62.8595 24.3162C62.8595 22.0842 61.1279 20.2356 58.9013 20.0898H54.4157C52.1891 20.2356 50.4575 22.0842 50.4575 24.3162C50.4575 26.5482 52.1891 28.3968 54.4157 28.5426H58.9013Z" fill="white"/><path d="M55.4273 28.5426H54.4157C52.1891 28.3968 50.4575 26.5464 50.4575 24.3162C50.4575 22.086 52.1891 20.2356 54.4157 20.0898H55.4273C54.5579 21.321 54.1331 22.8114 54.2267 24.3162C54.1349 25.821 54.5579 27.3114 55.4273 28.5426Z" fill="#FDF4D9"/><path d="M62.8597 24.3162C62.9317 26.5752 61.1605 28.467 58.9015 28.5426H54.4159C52.1569 28.467 50.3857 26.5752 50.4577 24.3162H62.8615H62.8597Z" fill="#F7C942"/><path d="M54.2249 24.3162H50.4557C50.4485 25.4232 50.8625 26.4924 51.6149 27.3042C52.3349 28.089 53.3501 28.5372 54.4139 28.5426H55.4255C54.5561 27.3114 54.1313 25.821 54.2249 24.3162Z" fill="#C6A135"/><path d="M17.3051 28.5426C19.5317 28.3968 21.2633 26.5482 21.2633 24.3162C21.2633 22.0842 19.5317 20.2356 17.3051 20.0898H12.8195C10.5929 20.2356 8.86133 22.0842 8.86133 24.3162C8.86133 26.5482 10.5929 28.3968 12.8195 28.5426H17.3051Z" fill="white"/><path d="M13.8297 28.5426H12.8181C10.5915 28.3968 8.85986 26.5464 8.85986 24.3162C8.85986 22.086 10.5915 20.2356 12.8181 20.0898H13.8297C12.9603 21.321 12.5355 22.8114 12.6291 24.3162C12.5373 25.821 12.9603 27.3114 13.8297 28.5426Z" fill="#FDF4D9"/><path d="M21.2635 24.3162C21.3355 26.5752 19.5643 28.467 17.3053 28.5426H12.8197C10.5607 28.467 8.78949 26.5752 8.86149 24.3162H21.2635Z" fill="#F7C942"/><path d="M12.6287 24.3162H8.85947C8.85227 25.4232 9.26627 26.4924 10.0187 27.3042C10.7387 28.089 11.7539 28.5372 12.8177 28.5426H13.8293C12.9599 27.3114 12.5351 25.821 12.6287 24.3162Z" fill="#C6A135"/><path d="M18.5454 49.2355C20.772 49.0897 22.5036 47.2411 22.5036 45.0091C22.5036 42.7771 20.772 40.9285 18.5454 40.7827H14.0598C11.8332 40.9285 10.1016 42.7771 10.1016 45.0091C10.1016 47.2411 11.8332 49.0897 14.0598 49.2355H18.5454Z" fill="white"/><path d="M15.0699 49.2355H14.0583C11.8317 49.0897 10.1001 47.2393 10.1001 45.0091C10.1001 42.7789 11.8317 40.9285 14.0583 40.7827H15.0699C14.2005 42.0139 13.7757 43.5043 13.8693 45.0091C13.7775 46.5139 14.2005 48.0043 15.0699 49.2355Z" fill="#F9D2AA"/><path d="M22.5037 45.009C22.5757 47.268 20.8045 49.1598 18.5455 49.2354H14.0599C11.8009 49.1598 10.0297 47.268 10.1017 45.009H22.5037V45.009Z" fill="#F39D56"/><path d="M13.8689 45.009H10.0997C10.0925 46.116 10.5065 47.1852 11.2589 47.997C11.9789 48.7818 12.9941 49.23 14.0579 49.2354H15.0695C14.2001 48.0042 13.7753 46.5138 13.8689 45.009V45.009Z" fill="#EE6352"/><path d="M38.3491 59.4325C40.5757 59.2867 42.3073 57.4381 42.3073 55.2061C42.3073 52.9741 40.5757 51.1255 38.3491 50.9797H33.8635C31.6369 51.1255 29.9053 52.9741 29.9053 55.2061C29.9053 57.4381 31.6369 59.2867 33.8635 59.4325H38.3491Z" fill="white"/><path d="M34.8736 59.4325H33.862C31.6354 59.2867 29.9038 57.4363 29.9038 55.2061C29.9038 52.9759 31.6354 51.1255 33.862 50.9797H34.8736C34.0042 52.2109 33.5794 53.7013 33.673 55.2061C33.5812 56.7109 34.0042 58.2013 34.8736 59.4325Z" fill="#FCE0DC"/><path d="M42.3074 55.2061C42.3794 57.4651 40.6082 59.3569 38.3492 59.4325H33.8636C31.6046 59.3569 29.8334 57.4651 29.9054 55.2061H42.3092H42.3074Z" fill="#EE6352"/><path d="M33.6726 55.2061H29.9034C29.8962 56.3131 30.3102 57.3823 31.0626 58.1941C31.7826 58.9789 32.7978 59.4271 33.8616 59.4325H34.8732C34.0038 58.2013 33.579 56.7109 33.6726 55.2061V55.2061Z" fill="#BE4F42"/><path d="M38.3491 15.8778C40.5757 15.732 42.3073 13.8834 42.3073 11.6514C42.3073 9.41945 40.5757 7.57085 38.3491 7.42505H33.8635C31.6369 7.57085 29.9053 9.41945 29.9053 11.6514C29.9053 13.8834 31.6369 15.732 33.8635 15.8778H38.3491Z" fill="white"/><path d="M34.8736 15.8778H33.862C31.6354 15.732 29.9038 13.8816 29.9038 11.6514C29.9038 9.42125 31.6354 7.57085 33.862 7.42505H34.8736C34.0042 8.65625 33.5794 10.1466 33.673 11.6514C33.5812 13.1562 34.0042 14.6466 34.8736 15.8778Z" fill="#FCE0DC"/><path d="M42.3074 11.6514C42.3794 13.9104 40.6082 15.8022 38.3492 15.8778H33.8636C31.6046 15.8022 29.8334 13.9104 29.9054 11.6514H42.3092H42.3074Z" fill="#EE6352"/><path d="M33.6726 11.6514H29.9034C29.8962 12.7584 30.3102 13.8276 31.0626 14.6394C31.7826 15.4242 32.7978 15.8724 33.8616 15.8778H34.8732C34.0038 14.6466 33.579 13.1562 33.6726 11.6514V11.6514Z" fill="#BE4F42"/></svg>