<svg xmlns="http://www.w3.org/2000/svg" width="56" height="56" viewBox="0 0 56 56" fill="none"><path d="M28 0C12.5 0 0 12.6 0 28C0 43.4 12.6 56 28 56C43.4 56 56 43.4 56 28C56 12.6 43.4 0 28 0Z" fill="#C6EED7"/><path d="M36.7 14.7999L24.8 24.7999C24.6 24.9999 24.6 25.2999 24.7 25.4999L28 29.3999C28.3 29.6999 28.8 29.7999 29.2 29.4999L40.9 19.6999L36.7 14.7999Z" fill="#008E3F"/><path d="M23.3 13.8999C23 13.5999 22.5 13.4999 22.1 13.7999L8.8 24.9999C8.5 25.2999 8.4 25.7999 8.7 26.1999L11.8 29.8999C12.1 30.1999 12.6 30.2999 13 29.9999L27 18.2999L23.3 13.8999Z" fill="#008E3F"/><path d="M21.3 11.5C21 11.2 20.5 11.1 20.1 11.4L6.8 22.6C6.5 22.9 6.4 23.4 6.7 23.8L9.8 27.5C10.1 27.8 10.6 27.9 11 27.6L25 15.9L21.3 11.5Z" fill="#00B14F"/><path d="M31.1 23.8999L27.1 27.1999C26.8 27.4999 26.3 27.3999 26 27.0999L16.7 15.9999L21.1 12.2999C21.4 11.9999 21.9 12.0999 22.2 12.3999L31.2 23.0999C31.3 23.3999 31.3 23.6999 31.1 23.8999Z" fill="#00B14F"/><path d="M34.7 12.3999L22.8 22.3999C22.6 22.5999 22.6 22.8999 22.7 23.0999L26 26.9999C26.3 27.2999 26.8 27.3999 27.2 27.0999L38.9 17.2999L34.7 12.3999Z" fill="#00B14F"/><path d="M46.3 10.9C46.2 10.8 46.1 10.7 46 10.7L34.3 10.6C33.9 10.6 33.6 11.1 33.9 11.4L43.7 23.1C44 23.4 44.5 23.3 44.6 22.9L46.5 11.3C46.5 11.1 46.5 11 46.3 10.9Z" fill="#008E3F"/><path d="M46.3594 10.9336L44.3668 8.55896L42.9114 9.78028L44.904 12.1549L46.3594 10.9336Z" fill="#008E3F"/><path d="M44.3 8.49995C44.2 8.39995 44.1 8.29995 44 8.29995L32.3 8.19995C31.9 8.19995 31.6 8.69995 31.9 8.99995L41.7 20.7C42 21 42.5 20.9 42.6 20.5L44.5 8.89995C44.5 8.79995 44.5 8.59995 44.3 8.49995Z" fill="#00B14F"/><path d="M28 48C39.0457 48 48 47.418 48 46.7C48 45.9821 39.0457 45.4 28 45.4C16.9543 45.4 8 45.9821 8 46.7C8 47.418 16.9543 48 28 48Z" fill="#92DBB3"/><path fill-rule="evenodd" clip-rule="evenodd" d="M38.7999 32.3H17.7999C17.3999 32.3 17.2 32.6001 17.2 32.9001V38.8C17.2 39.2 17.4999 39.4001 17.7999 39.4001H38.9C39.3 39.4001 39.5 39.1 39.5 38.8V32.9001C39.5 32.6001 39.1999 32.3 38.7999 32.3Z" fill="#F7C942"/><path fill-rule="evenodd" clip-rule="evenodd" d="M17.1 37.1001V38.9001C17.1 39.3001 17.4 39.5001 17.7 39.5001H38.8C39.2 39.5001 39.4 39.2001 39.4 38.9001V37.1001H17.1Z" fill="#C7712D"/><path fill-rule="evenodd" clip-rule="evenodd" d="M34.8 39.4H13.7C13.3 39.4 13.1 39.7 13.1 40V46C13.1 46.4 13.4 46.6 13.7 46.6H34.8C35.2 46.6 35.4 46.3 35.4 46V40.1C35.5 39.7 35.2 39.4 34.8 39.4Z" fill="#F7C942"/><path fill-rule="evenodd" clip-rule="evenodd" d="M13.1 44.2001V46.0001C13.1 46.4001 13.4 46.6001 13.7 46.6001H34.8C35.2 46.6001 35.4 46.3001 35.4 46.0001V44.2001H13.1Z" fill="#C7712D"/><path fill-rule="evenodd" clip-rule="evenodd" d="M28.2 40.7001L37.4 35.4001L32.4 26.7001L29 28.6001C25.8 30.5001 25.4 35.8001 28.2 40.7001Z" fill="#F38522"/><path fill-rule="evenodd" clip-rule="evenodd" d="M28.2 40.7C31 45.5 35.8 47.8 39 46L42.4 44.1L37.4 35.4L28.2 40.7Z" fill="#C7712D"/><path fill-rule="evenodd" clip-rule="evenodd" d="M31.6 38.7C34.4 43.5 39.2 45.9 42.4 44C45.6 42.1 46 36.8 43.2 32C40.4 27.2 35.6 24.8 32.4 26.7C29.2 28.5 28.9 33.9 31.6 38.7Z" fill="#F7C942"/><path fill-rule="evenodd" clip-rule="evenodd" d="M34.2 37.2001C35.9 40.2001 38.9 41.6001 40.9 40.5001C42.9 39.4001 43.1 36.0001 41.4 33.1001C39.7 30.1001 36.7 28.7001 34.7 29.8001C32.7 30.9001 32.5 34.3001 34.2 37.2001Z" fill="#F7C942"/></svg>